<svg class="typst-doc" viewBox="0 0 320.4724409448819 86.75590551181102" width="320.4724409448819pt" height="86.75590551181102pt" xmlns="http://www.w3.org/2000/svg" xmlns:xlink="http://www.w3.org/1999/xlink" xmlns:h5="http://www.w3.org/1999/xhtml">
    <path class="typst-shape" fill="#ffffff" fill-rule="nonzero" d="M 0 0v 86.755905 h 320.47244 v -86.755905 Z "/>
    <g>
        <g class="typst-group" transform="matrix(1 0 0 1 10 10)">
            <g>
                <path class="typst-shape" fill="#ffffff" fill-rule="nonzero" stroke="#1f4e79" stroke-width="1.3" stroke-linecap="butt" stroke-linejoin="miter" stroke-miterlimit="4" transform="matrix(1 0 0 1 0 17.85826771653543)" d="M 0 0m 3.968504 0 c -2.1897569 0 -3.968504 1.778747 -3.968504 3.968504 v 37.41732 c 0 2.1897583 1.778747 3.9685059 3.968504 3.9685059 h 82.77165 c 2.1897583 0 3.9685059 -1.7787476 3.9685059 -3.9685059 v -37.41732 c 0 -2.1897569 -1.7787476 -3.968504 -3.9685059 -3.968504 h -82.77165 Z "/>
                <path class="typst-shape" fill="none" transform="matrix(1 0 0 1 31.30733070866142 36.53693307086613)" d="M 0 0h 28.094 v 7.997 h -28.094 v -7.997 Z "/>
                <g class="typst-group">
                    <g>
                        <g class="typst-group" transform="matrix(1 0 0 1 31.307330692913386 36.536933055118105)">
                            <g>
                                <g class="typst-text" transform="matrix(1 0 0 -1 0 7.854)">
                                    <use xlink:href="#g9D8B560F4881DE72B36BF1CC0D82C4C1" x="0" y="0" fill="#000000" fill-rule="nonzero"/>
                                    <use xlink:href="#g907167E79E15B3E1EB4F83A22D52A7BD" x="7.942" y="0" fill="#000000" fill-rule="nonzero"/>
                                    <use xlink:href="#g4FFDB747808B2ADD12329C711F7DB827" x="10.780000000000001" y="0" fill="#000000" fill-rule="nonzero"/>
                                    <use xlink:href="#g42DA840F4E482E6DAE9F13E287656352" x="17.501" y="0" fill="#000000" fill-rule="nonzero"/>
                                    <use xlink:href="#gB1F8005863B7C629B4303A7FD5AB85E0" x="23.815" y="0" fill="#000000" fill-rule="nonzero"/>
                                </g>
                            </g>
                        </g>
                    </g>
                </g>
                <path class="typst-shape" fill="#ffffff" fill-rule="nonzero" stroke="#1f4e79" stroke-width="1.3" stroke-linecap="butt" stroke-linejoin="miter" stroke-miterlimit="4" transform="matrix(1 0 0 1 209.76377952755905 17.85826771653543)" d="M 0 0m 3.968504 0 c -2.1897569 0 -3.968504 1.778747 -3.968504 3.968504 v 37.41732 c 0 2.1897583 1.778747 3.9685059 3.968504 3.9685059 h 82.77165 c 2.1897583 0 3.9685059 -1.7787476 3.9685059 -3.9685059 v -37.41732 c 0 -2.1897569 -1.7787476 -3.968504 -3.9685059 -3.968504 h -82.77165 Z "/>
                <path class="typst-shape" fill="none" transform="matrix(1 0 0 1 231.5891102362205 35.61293307086613)" d="M 0 0h 47.058 v 9.845 h -47.058 v -9.845 Z "/>
                <g class="typst-group">
                    <g>
                        <g class="typst-group" transform="matrix(1 0 0 1 231.58911018897638 35.61293296062992)">
                            <g>
                                <g class="typst-text" transform="matrix(1 0 0 -1 0 7.854)">
                                    <use xlink:href="#gCCBC43A09BF678D91A5B1A0B14BB1174" x="0" y="0" fill="#000000" fill-rule="nonzero"/>
                                    <use xlink:href="#gD32AB6B27C103E911115D6CFBD59EDDC" x="8.558" y="0" fill="#000000" fill-rule="nonzero"/>
                                    <use xlink:href="#g42DA840F4E482E6DAE9F13E287656352" x="15.279" y="0" fill="#000000" fill-rule="nonzero"/>
                                    <use xlink:href="#gB1F8005863B7C629B4303A7FD5AB85E0" x="21.593" y="0" fill="#000000" fill-rule="nonzero"/>
                                    <use xlink:href="#g6291DBA76914262495929100DA58D54A" x="25.872" y="0" fill="#000000" fill-rule="nonzero"/>
                                    <use xlink:href="#g66A4E3224897E955548176BF09B643B4" x="32.186" y="0" fill="#000000" fill-rule="nonzero"/>
                                    <use xlink:href="#g95650BD90A49990AF21090AF32BF2E3B" x="36.058" y="0" fill="#000000" fill-rule="nonzero"/>
                                    <use xlink:href="#gB1F8005863B7C629B4303A7FD5AB85E0" x="42.778999999999996" y="0" fill="#000000" fill-rule="nonzero"/>
                                </g>
                            </g>
                        </g>
                    </g>
                </g>
                <path class="typst-shape" fill="none" stroke="#2f6fae" stroke-width="1.5" stroke-linecap="butt" stroke-linejoin="miter" stroke-miterlimit="4" transform="matrix(1 0 0 1 90.70866141732284 16.440944881889767)" d="M 0 0h 110.499825 "/>
                <path class="typst-shape" fill="none" stroke="#2f6fae" stroke-width="1.5" stroke-linecap="butt" stroke-linejoin="miter" stroke-miterlimit="4" transform="matrix(1 0 0 1 201.95848714960633 14.314960629921256)" d="M 0 0m 5.6692915 2.1259842 l -5.6692915 -2.1259842 v 4.2519684 l 5.6692915 -2.1259842 Z "/>
                <path class="typst-shape" fill="#ffffff" fill-rule="nonzero" stroke="#1f4e79" stroke-width="1.1" stroke-linecap="butt" stroke-linejoin="miter" stroke-miterlimit="4" transform="matrix(1 0 0 1 123.87401574803152 0)" d="M 0 0m 6.5196853 0 c -3.5974581 0 -6.5196853 2.9222271 -6.5196853 6.5196853 c 0 3.5974574 2.9222271 6.5196853 6.5196853 6.5196853 c 3.5974574 0 6.5196853 -2.9222279 6.5196853 -6.5196853 c 0 -3.5974581 -2.9222279 -6.5196853 -6.5196853 -6.5196853 Z "/>
                <path class="typst-shape" fill="none" transform="matrix(1 0 0 1 127.89170078740158 3.306685039370099)" d="M 0 0h 5.004 v 6.426 h -5.004 v -6.426 Z "/>
                <g class="typst-group">
                    <g>
                        <g class="typst-group" transform="matrix(1 0 0 1 127.89170064566929 3.3066850393700915)">
                            <g>
                                <g class="typst-text" transform="matrix(1 0 0 -1 0 6.426)">
                                    <use xlink:href="#g1652C69FA494F63A623FE2FB45508FE8" x="0" y="0" fill="#1f4e79" fill-rule="nonzero"/>
                                </g>
                            </g>
                        </g>
                    </g>
                </g>
                <path class="typst-shape" fill="#ffffff" fill-rule="nonzero" transform="matrix(1 0 0 1 144.20157874015752 0.15246850393701383)" d="M 0 0h 18.872433 v 12.734433 h -18.872433 v -12.734433 Z "/>
                <g class="typst-group">
                    <g>
                        <g class="typst-group" transform="matrix(1 0 0 1 144.2015787401575 0.15246850393702074)">
                            <g>
                                <g class="typst-text" transform="matrix(1 0 0 -1 2.267716535433071 8.69371653543307)">
                                    <use xlink:href="#g730E45AFC1E994C72656011AD7389126" x="0" y="0" fill="#1f4e79" fill-rule="nonzero"/>
                                    <use xlink:href="#gCA56A86F5EB2EF2FF307152208C4367C" x="4.167000000000001" y="0" fill="#1f4e79" fill-rule="nonzero"/>
                                    <use xlink:href="#gED32004C15A72A60DABB0F294095F536" x="9" y="0" fill="#1f4e79" fill-rule="nonzero"/>
                                </g>
                            </g>
                        </g>
                    </g>
                </g>
                <path class="typst-shape" fill="none" stroke="#2f6fae" stroke-width="1.5" stroke-linecap="butt" stroke-linejoin="miter" stroke-miterlimit="4" transform="matrix(1 0 0 1 99.2639536922349 40.535433070866134)" d="M 0 0m 110.499825 0 h -110.499825 "/>
                <path class="typst-shape" fill="none" stroke="#2f6fae" stroke-width="1.5" stroke-linecap="butt" stroke-linejoin="miter" stroke-miterlimit="4" transform="matrix(1 0 0 1 92.84466245669292 38.40944881889762)" d="M 0 0m 0 2.1259842 l 5.6692915 2.1259842 v -4.2519684 l -5.6692915 2.1259842 Z "/>
                <path class="typst-shape" fill="#ffffff" fill-rule="nonzero" transform="matrix(1 0 0 1 128.65042913385824 25.061456692913374)" d="M 0 0h 36.368435 v 11.105433 h -36.368435 v -11.105433 Z "/>
                <g class="typst-group">
                    <g>
                        <g class="typst-group" transform="matrix(1 0 0 1 128.650428992126 25.061456551181106)">
                            <g>
                                <g class="typst-text" transform="matrix(1 0 0 -1 2.267716535433071 8.69371653543307)">
                                    <use xlink:href="#g22F711DA9E4B972F68FD7E292C99B7BC" x="0" y="0" fill="#1f4e79" fill-rule="nonzero"/>
                                    <use xlink:href="#g61C9F4127305AF901F360BEF13C24E61" x="6.498" y="0" fill="#1f4e79" fill-rule="nonzero"/>
                                    <use xlink:href="#g8E1B81F111D8DA596C7989F59A681042" x="11.664000000000001" y="0" fill="#1f4e79" fill-rule="nonzero"/>
                                    <use xlink:href="#g67D2CD4296E07F1D67A4C18AAF486A69" x="16.668000000000003" y="0" fill="#1f4e79" fill-rule="nonzero"/>
                                    <use xlink:href="#g94C46ABA2BB9A9DA8335CE1E27CE1572" x="19.503000000000004" y="0" fill="#1f4e79" fill-rule="nonzero"/>
                                    <use xlink:href="#gC01CAC907CA7F3CCDAC0F1469FDA2B34" x="24.336000000000006" y="0" fill="#1f4e79" fill-rule="nonzero"/>
                                    <use xlink:href="#g67D2CD4296E07F1D67A4C18AAF486A69" x="28.998000000000005" y="0" fill="#1f4e79" fill-rule="nonzero"/>
                                </g>
                            </g>
                        </g>
                    </g>
                </g>
                <path class="typst-shape" fill="#ffffff" fill-rule="nonzero" stroke="#1f4e79" stroke-width="1.1" stroke-linecap="butt" stroke-linejoin="miter" stroke-miterlimit="4" transform="matrix(1 0 0 1 172.06299212598427 24.094488188976367)" d="M 0 0m 6.5196853 0 c -3.5974581 0 -6.5196853 2.9222271 -6.5196853 6.5196853 c 0 3.5974574 2.9222271 6.5196853 6.5196853 6.5196853 c 3.5974574 0 6.5196853 -2.9222279 6.5196853 -6.5196853 c 0 -3.5974581 -2.9222279 -6.5196853 -6.5196853 -6.5196853 Z "/>
                <path class="typst-shape" fill="none" transform="matrix(1 0 0 1 176.08067716535436 27.40117322834647)" d="M 0 0h 5.004 v 6.426 h -5.004 v -6.426 Z "/>
                <g class="typst-group">
                    <g>
                        <g class="typst-group" transform="matrix(1 0 0 1 176.0806770236221 27.40117322834646)">
                            <g>
                                <g class="typst-text" transform="matrix(1 0 0 -1 0 6.426)">
                                    <use xlink:href="#g4080380802756EC36CCB0FF8CCC55A23" x="0" y="0" fill="#1f4e79" fill-rule="nonzero"/>
                                </g>
                            </g>
                        </g>
                    </g>
                </g>
                <path class="typst-shape" fill="none" stroke="#2f6fae" stroke-width="1.5" stroke-linecap="butt" stroke-linejoin="miter" stroke-miterlimit="4" transform="matrix(1 0 0 1 90.70866141732284 64.62992125984252)" d="M 0 0h 110.499825 "/>
                <path class="typst-shape" fill="none" stroke="#2f6fae" stroke-width="1.5" stroke-linecap="butt" stroke-linejoin="miter" stroke-miterlimit="4" transform="matrix(1 0 0 1 201.95848714960633 62.50393700787401)" d="M 0 0m 5.6692915 2.1259842 l -5.6692915 -2.1259842 v 4.2519684 l 5.6692915 -2.1259842 Z "/>
                <path class="typst-shape" fill="#ffffff" fill-rule="nonzero" stroke="#1f4e79" stroke-width="1.1" stroke-linecap="butt" stroke-linejoin="miter" stroke-miterlimit="4" transform="matrix(1 0 0 1 112.53543307086615 48.18897637795275)" d="M 0 0m 6.5196853 0 c -3.5974581 0 -6.5196853 2.9222271 -6.5196853 6.5196853 c 0 3.5974574 2.9222271 6.5196853 6.5196853 6.5196853 c 3.5974574 0 6.5196853 -2.9222279 6.5196853 -6.5196853 c 0 -3.5974581 -2.9222279 -6.5196853 -6.5196853 -6.5196853 Z "/>
                <path class="typst-shape" fill="none" transform="matrix(1 0 0 1 116.55311811023626 51.43716141732282)" d="M 0 0h 5.004 v 6.543 h -5.004 v -6.543 Z "/>
                <g class="typst-group">
                    <g>
                        <g class="typst-group" transform="matrix(1 0 0 1 116.55311796850397 51.43716141732283)">
                            <g>
                                <g class="typst-text" transform="matrix(1 0 0 -1 0 6.426)">
                                    <use xlink:href="#gBB8FA3CD457EA7A6C2D27AC4E2C99827" x="0" y="0" fill="#1f4e79" fill-rule="nonzero"/>
                                </g>
                            </g>
                        </g>
                    </g>
                </g>
                <path class="typst-shape" fill="#ffffff" fill-rule="nonzero" transform="matrix(1 0 0 1 132.20007874015744 48.28744488188975)" d="M 0 0h 42.875435 v 12.842433 h -42.875435 v -12.842433 Z "/>
                <g class="typst-group">
                    <g>
                        <g class="typst-group" transform="matrix(1 0 0 1 132.2000785984252 48.287444881889755)">
                            <g>
                                <g class="typst-text" transform="matrix(1 0 0 -1 2.267716535433071 8.69371653543307)">
                                    <use xlink:href="#g5284E6BE1CA0EF36B792B0FE6B651BC8" x="0" y="0" fill="#1f4e79" fill-rule="nonzero"/>
                                    <use xlink:href="#gD0A61EF031432F1821017400524F24E5" x="5.832" y="0" fill="#1f4e79" fill-rule="nonzero"/>
                                    <use xlink:href="#g8E4EB483AC6E6351ACDB17B6B003FAEE" x="7.83" y="0" fill="#1f4e79" fill-rule="nonzero"/>
                                    <use xlink:href="#g8E1B81F111D8DA596C7989F59A681042" x="12.996" y="0" fill="#1f4e79" fill-rule="nonzero"/>
                                    <use xlink:href="#gCA56A86F5EB2EF2FF307152208C4367C" x="18" y="0" fill="#1f4e79" fill-rule="nonzero"/>
                                    <use xlink:href="#g67D2CD4296E07F1D67A4C18AAF486A69" x="22.833" y="0" fill="#1f4e79" fill-rule="nonzero"/>
                                    <use xlink:href="#g1180D6D71B188E163EF653E1338B925" x="25.668" y="0" fill="#1f4e79" fill-rule="nonzero"/>
                                    <use xlink:href="#g2EEC05104648C1A05C904F1724267301" x="30.672" y="0" fill="#1f4e79" fill-rule="nonzero"/>
                                    <use xlink:href="#g94C46ABA2BB9A9DA8335CE1E27CE1572" x="33.507" y="0" fill="#1f4e79" fill-rule="nonzero"/>
                                </g>
                            </g>
                        </g>
                    </g>
                </g>
            </g>
        </g>
    </g>
    <defs id="glyph">
        <symbol id="g9D8B560F4881DE72B36BF1CC0D82C4C1" overflow="visible">
            <path d="M 0 0m 2.486 4.301 v 2.211 h 1.8919997 q 0.59400034 0 0.8910003 -0.2585001 q 0.29699993 -0.2585001 0.29699993 -0.8305001 q 0 -0.59399986 -0.29699993 -0.8579998 q -0.29699993 -0.26399994 -0.8910003 -0.26399994 h -1.8919997 Z m -1.727 3.553 v -7.854 h 1.727 v 3.069 h 1.7269998 q 0.64900017 0 0.93499994 -0.286 q 0.28600025 -0.286 0.37400007 -0.90199995 q 0.065999985 -0.47300005 0.09899998 -0.99000007 q 0.032999992 -0.51699996 0.17600012 -0.891 h 1.7270002 q -0.12100029 0.16499999 -0.18150043 0.4015 q -0.060499668 0.23650002 -0.08799982 0.5005 q -0.027500153 0.264 -0.038499832 0.517 q -0.011000156 0.2529999 -0.022000313 0.43999994 q -0.021999836 0.29699993 -0.08249998 0.5940001 q -0.060499668 0.29699993 -0.19249964 0.5444999 q -0.13199997 0.24749994 -0.34100008 0.42900014 q -0.20900011 0.18149996 -0.5279999 0.26950002 v 0.021999836 q 0.65999985 0.26399994 0.95149994 0.77 q 0.2914996 0.50600004 0.2914996 1.1989999 q 0 0.4510002 -0.15949965 0.8415003 q -0.15950012 0.39050007 -0.46200037 0.6875 q -0.30249977 0.29699993 -0.72599983 0.46749973 q -0.42350006 0.17050028 -0.95149994 0.17050028 h -4.235 Z "/>
        </symbol>
        <symbol id="g907167E79E15B3E1EB4F83A22D52A7BD" overflow="visible">
            <path d="M 0 0m 2.2 6.567 v 1.2870002 h -1.562 v -1.2870002 h 1.562 Z m -1.562 -0.8800001 v -5.687 h 1.562 v 5.687 h -1.562 Z "/>
        </symbol>
        <symbol id="g4FFDB747808B2ADD12329C711F7DB827" overflow="visible">
            <path d="M 0 0m 4.631 2.86 q 0 -0.352 -0.065999985 -0.6819999 q -0.065999985 -0.32999992 -0.22000027 -0.5885 q -0.1539998 -0.25849998 -0.4124999 -0.4124999 q -0.25849986 -0.15400004 -0.64349985 -0.15400004 q -0.36300015 0 -0.6215 0.1595 q -0.2585001 0.1595 -0.42900014 0.41799998 q -0.1704998 0.25849998 -0.24749994 0.5884999 q -0.0769999 0.33000016 -0.0769999 0.6600001 q 0 0.352 0.071499944 0.6765001 q 0.071499944 0.32449985 0.23100007 0.5775001 q 0.15949988 0.25299978 0.42349982 0.4069996 q 0.26400018 0.15400028 0.64900017 0.15400028 q 0.385 0 0.638 -0.15400028 q 0.25299978 -0.1539998 0.4124999 -0.40149975 q 0.15950012 -0.24749994 0.2255001 -0.572 q 0.065999985 -0.32450008 0.065999985 -0.6765001 Z m 0.021999836 -2.1339998 v -0.726 h 1.4850001 v 7.854 h -1.5619998 v -2.8600001 h -0.022000313 q -0.26399994 0.41800022 -0.7205 0.6325002 q -0.45649981 0.21449995 -0.96249986 0.21449995 q -0.6270001 0 -1.1 -0.24749994 q -0.47300005 -0.24749994 -0.78650004 -0.6545 q -0.3135 -0.40700006 -0.473 -0.94050026 q -0.1595 -0.53349996 -0.1595 -1.1055 q 0 -0.59399986 0.1595 -1.1439999 q 0.1595 -0.54999995 0.473 -0.97349995 q 0.3135 -0.4235 0.79749995 -0.671 q 0.4840001 -0.2475 1.1220001 -0.2475 q 0.5609999 0 1.0065 0.2035 q 0.4454999 0.2035 0.7205 0.6655 h 0.021999836 Z "/>
        </symbol>
        <symbol id="g42DA840F4E482E6DAE9F13E287656352" overflow="visible">
            <path d="M 0 0m 4.422 3.454 h -2.541 q 0.010999918 0.16499996 0.071499944 0.37400007 q 0.060500026 0.20900011 0.20899999 0.3959999 q 0.14849997 0.1869998 0.3959999 0.31349993 q 0.24750018 0.12650013 0.6215 0.12650013 q 0.572 0 0.85249996 -0.3080001 q 0.28049994 -0.3080001 0.39050007 -0.90199995 Z m -2.541 -0.99 h 4.103 q 0.043999672 0.6600001 -0.11000013 1.2650001 q -0.15400028 0.605 -0.5005002 1.0780001 q -0.34649992 0.47299957 -0.88549995 0.7535 q -0.53900003 0.28049994 -1.2649999 0.28049994 q -0.64900017 0 -1.1825001 -0.23099995 q -0.53349996 -0.23099995 -0.91849995 -0.6325002 q -0.385 -0.40149975 -0.594 -0.95149994 q -0.20899999 -0.54999995 -0.20899999 -1.188 q 0 -0.6600001 0.20349997 -1.21 q 0.20350003 -0.5500001 0.57750005 -0.94600004 q 0.37399995 -0.39599997 0.913 -0.6105 q 0.53900003 -0.21450001 1.21 -0.21450001 q 0.96799994 0 1.6500001 0.44 q 0.6819997 0.44 1.0119996 1.463 h -1.375 q -0.076999664 -0.26399994 -0.41799974 -0.50049996 q -0.34100008 -0.23650002 -0.8140001 -0.23650002 q -0.65999985 0 -1.0119998 0.34099996 q -0.352 0.34100008 -0.385 1.1 Z "/>
        </symbol>
        <symbol id="gB1F8005863B7C629B4303A7FD5AB85E0" overflow="visible">
            <path d="M 0 0m 0.594 5.687 v -5.687 h 1.5619999 v 2.563 q 0 0.385 0.07700014 0.7149999 q 0.0769999 0.33000016 0.25849986 0.5775001 q 0.1815002 0.24750018 0.47850013 0.39049983 q 0.29699993 0.14300013 0.7260001 0.14300013 q 0.14299989 0 0.29699993 -0.016499996 q 0.1539998 -0.016499996 0.26399994 -0.038499832 v 1.4519997 q -0.1869998 0.055000305 -0.34100008 0.055000305 q -0.29699993 0 -0.572 -0.0880003 q -0.27499986 -0.08799982 -0.51699996 -0.24749994 q -0.24199986 -0.15949965 -0.4289999 -0.38499975 q -0.18700004 -0.2255001 -0.29699993 -0.48950005 h -0.022000074 v 1.0559998 h -1.485 Z "/>
        </symbol>
        <symbol id="gCCBC43A09BF678D91A5B1A0B14BB1174" overflow="visible">
            <path d="M 0 0m 2.145 3.894 q 0 0.5169997 0.11549997 1.0009999 q 0.11549997 0.4840002 0.3685 0.8635001 q 0.25300002 0.3794999 0.6600001 0.605 q 0.40700006 0.22549963 0.9899998 0.22549963 q 0.5830002 0 0.99000025 -0.22549963 q 0.40700006 -0.2255001 0.65999985 -0.605 q 0.25300026 -0.3794999 0.36850023 -0.8635001 q 0.11549997 -0.4840002 0.11549997 -1.0009999 q 0 -0.49500012 -0.11549997 -0.9625001 q -0.11549997 -0.46749997 -0.36850023 -0.84150004 q -0.25299978 -0.37399995 -0.65999985 -0.59949994 q -0.40700006 -0.22549999 -0.99000025 -0.22549999 q -0.5829997 0 -0.9899998 0.22549999 q -0.40700006 0.22549999 -0.6600001 0.59949994 q -0.25300002 0.37400007 -0.3685 0.84150004 q -0.11549997 0.46749997 -0.11549997 0.9625001 Z m -1.727 0 q 0 -0.85800004 0.264 -1.6005001 q 0.264 -0.74249995 0.759 -1.2924999 q 0.495 -0.5500001 1.2155001 -0.86350006 q 0.7205 -0.3135 1.6224997 -0.3135 q 0.9130001 0 1.6280003 0.3135 q 0.7149997 0.3135 1.21 0.86350006 q 0.4949999 0.54999995 0.7589998 1.2924999 q 0.26400042 0.74250007 0.26400042 1.6005001 q 0 0.8800001 -0.26400042 1.6335001 q -0.26399994 0.7535 -0.7589998 1.3144999 q -0.49500036 0.5609999 -1.21 0.8800001 q -0.71500015 0.31900024 -1.6280003 0.31900024 q -0.9019997 0 -1.6224997 -0.31900024 q -0.7205001 -0.31900024 -1.2155001 -0.8800001 q -0.495 -0.5609999 -0.759 -1.3144999 q -0.264 -0.7535 -0.264 -1.6335001 Z "/>
        </symbol>
        <symbol id="gD32AB6B27C103E911115D6CFBD59EDDC" overflow="visible">
            <path d="M 0 0m 3.465 1.023 q -0.37399983 0 -0.638 0.15400004 q -0.26399994 0.15399992 -0.42349982 0.4015 q -0.15950012 0.24749994 -0.23100019 0.57749987 q -0.071499825 0.33000016 -0.071499825 0.671 q 0 0.352 0.065999985 0.68200016 q 0.065999985 0.32999992 0.22549987 0.58299994 q 0.15950012 0.25299978 0.41799998 0.4124999 q 0.2585001 0.15950012 0.6435001 0.15950012 q 0.37400007 0 0.6325002 -0.15950012 q 0.25849962 -0.15950012 0.42349958 -0.41799974 q 0.16500044 -0.2585001 0.23650026 -0.58850026 q 0.071499825 -0.32999992 0.071499825 -0.671 q 0 -0.34099984 -0.065999985 -0.671 q -0.065999985 -0.32999992 -0.2255001 -0.57749987 q -0.15949965 -0.24750006 -0.41799974 -0.4015 q -0.2585001 -0.15400004 -0.6435001 -0.15400004 Z m -2.8709998 4.6639996 v -7.6779995 h 1.5619999 v 2.695 h 0.022000074 q 0.286 -0.41799998 0.7314999 -0.6325 q 0.44550014 -0.21450001 0.9735 -0.21450001 q 0.62699986 0 1.0945001 0.24200001 q 0.4675002 0.24199998 0.78100014 0.64900005 q 0.31349993 0.40699995 0.46749973 0.93499994 q 0.15400028 0.528 0.15400028 1.1 q 0 0.605 -0.15400028 1.1605 q -0.1539998 0.55550003 -0.47300005 0.9734998 q -0.31899977 0.41800022 -0.803 0.671 q -0.48399973 0.25300026 -1.1549997 0.25300026 q -0.5280001 0 -0.9680002 -0.20900011 q -0.43999982 -0.20900011 -0.72599983 -0.671 h -0.022000074 v 0.72599983 h -1.485 Z "/>
        </symbol>
        <symbol id="g6291DBA76914262495929100DA58D54A" overflow="visible">
            <path d="M 0 0m 0.528 3.938 q 0.032999992 0.54999995 0.27499998 0.91299987 q 0.24199998 0.36299992 0.61600006 0.5830002 q 0.37399995 0.21999979 0.8414999 0.31349993 q 0.46749997 0.09350014 0.9405 0.09350014 q 0.4289999 0 0.8690002 -0.060500145 q 0.43999958 -0.060500145 0.803 -0.23649979 q 0.36299992 -0.17600012 0.59399986 -0.48950005 q 0.23099995 -0.31349993 0.23099995 -0.8305001 v -2.959 q 0 -0.385 0.04400015 -0.737 q 0.043999672 -0.352 0.1539998 -0.528 h -1.5840001 q -0.043999672 0.132 -0.071499825 0.2695 q -0.027500153 0.13750002 -0.038499832 0.28050002 q -0.37400007 -0.38500002 -0.8800001 -0.53900003 q -0.50600004 -0.15400001 -1.0339999 -0.15400001 q -0.40700006 0 -0.75900006 0.09900001 q -0.352 0.099 -0.61600006 0.308 q -0.264 0.20899999 -0.41249996 0.528 q -0.14850003 0.31899995 -0.14850003 0.759 q 0 0.4840001 0.17049998 0.7975 q 0.17050004 0.31349993 0.44 0.50049996 q 0.26950002 0.18700004 0.61600006 0.28049994 q 0.34649992 0.09350014 0.6984999 0.14849997 q 0.352 0.055000067 0.6930001 0.08800006 q 0.34099984 0.032999992 0.605 0.09899998 q 0.26399994 0.065999985 0.41799998 0.19250011 q 0.1539998 0.12649989 0.14300013 0.3685 q 0 0.25299978 -0.08249998 0.40149975 q -0.08250022 0.14850044 -0.22000027 0.23100042 q -0.13749981 0.08249998 -0.319 0.10999966 q -0.18149996 0.027500153 -0.39049983 0.027500153 q -0.46200013 0 -0.7260001 -0.19799995 q -0.26399994 -0.19799995 -0.3080001 -0.6600001 h -1.5619999 Z m 3.6080003 -1.155 q -0.09899998 -0.08800006 -0.24750018 -0.13750005 q -0.14849997 -0.04949999 -0.319 -0.08249998 q -0.17050004 -0.032999992 -0.35750008 -0.055000067 q -0.1869998 -0.021999836 -0.37399983 -0.05499983 q -0.17600012 -0.032999992 -0.34650016 -0.08800006 q -0.1704998 -0.055000067 -0.29699993 -0.14849997 q -0.12649989 -0.09350014 -0.20350003 -0.23650002 q -0.0769999 -0.143 -0.0769999 -0.36300004 q 0 -0.20899999 0.0769999 -0.352 q 0.07700014 -0.143 0.20900011 -0.22549999 q 0.13199997 -0.08249998 0.30799985 -0.11549997 q 0.17600012 -0.033000052 0.36300015 -0.033000052 q 0.4619999 0 0.7149999 0.15399998 q 0.25300002 0.15400004 0.37400007 0.3685 q 0.12099981 0.21450007 0.14849997 0.4345001 q 0.027500153 0.22000003 0.027500153 0.352 v 0.58299994 Z "/>
        </symbol>
        <symbol id="g66A4E3224897E955548176BF09B643B4" overflow="visible">
            <path d="M 0 0m 2.574 5.687 v 1.7050004 h -1.5619999 v -1.7050004 h -0.946 v -1.0449996 h 0.946 v -3.3550003 q 0 -0.42899996 0.143 -0.69299996 q 0.143 -0.264 0.39050007 -0.40699998 q 0.24749994 -0.143 0.572 -0.19250001 q 0.32449985 -0.0495 0.6875 -0.0495 q 0.23099995 0 0.4729998 0.011 q 0.2420001 0.011 0.44000006 0.044 v 1.21 q -0.109999895 -0.022000074 -0.23099995 -0.032999992 q -0.12100005 -0.011000037 -0.25300002 -0.011000037 q -0.3959999 0 -0.5279999 0.13199997 q -0.13200021 0.13199997 -0.13200021 0.528 v 2.8160002 h 1.144 v 1.0449996 h -1.144 Z "/>
        </symbol>
        <symbol id="g95650BD90A49990AF21090AF32BF2E3B" overflow="visible">
            <path d="M 0 0m 1.98 2.838 q 0 0.34099984 0.065999985 0.671 q 0.065999985 0.32999992 0.22549987 0.58299994 q 0.15950012 0.25299978 0.42350006 0.4124999 q 0.26399994 0.15950012 0.6600001 0.15950012 q 0.3959999 0 0.66550016 -0.15950012 q 0.26949978 -0.15950012 0.4289999 -0.4124999 q 0.15950012 -0.25300002 0.2255001 -0.58299994 q 0.065999985 -0.33000016 0.065999985 -0.671 q 0 -0.34100008 -0.065999985 -0.66550016 q -0.065999985 -0.32449985 -0.2255001 -0.58299994 q -0.15950012 -0.25849998 -0.4289999 -0.4124999 q -0.26950026 -0.15400004 -0.66550016 -0.15400004 q -0.39600015 0 -0.6600001 0.15400004 q -0.26399994 0.15399992 -0.42350006 0.4124999 q -0.15949988 0.2585001 -0.22549987 0.58299994 q -0.065999985 0.32450008 -0.065999985 0.66550016 Z m -1.562 0 q 0 -0.68200016 0.20899999 -1.2320001 q 0.20899999 -0.54999995 0.594 -0.94049996 q 0.385 -0.39049998 0.924 -0.5995 q 0.53900003 -0.209 1.21 -0.209 q 0.671 0 1.2154999 0.209 q 0.5444999 0.209 0.9295001 0.5995 q 0.38499975 0.3905 0.59399986 0.94049996 q 0.20900011 0.54999995 0.20900011 1.2320001 q 0 0.6819999 -0.20900011 1.2375 q -0.20900011 0.55550003 -0.59399986 0.9460001 q -0.38500023 0.39050007 -0.9295001 0.605 q -0.5444999 0.21449995 -1.2154999 0.21449995 q -0.671 0 -1.21 -0.21449995 q -0.53900003 -0.21449995 -0.924 -0.605 q -0.385 -0.39050007 -0.594 -0.9460001 q -0.20899999 -0.55550003 -0.20899999 -1.2375 Z "/>
        </symbol>
        <symbol id="g1652C69FA494F63A623FE2FB45508FE8" overflow="visible">
            <path d="M 0 0m 3.5279999 0 v 6.2999997 h -1.017 q -0.05400014 -0.36000013 -0.2249999 -0.60300016 q -0.171 -0.24299955 -0.41850007 -0.3915 q -0.24750006 -0.14849997 -0.55799997 -0.20699978 q -0.31050003 -0.058499813 -0.64350003 -0.04949999 v -0.9629998 h 1.5840001 v -4.086 h 1.2779999 Z "/>
        </symbol>
        <symbol id="g730E45AFC1E994C72656011AD7389126" overflow="visible">
            <path d="M 0 0m 2.1599998 5.706 v -5.706 h 0.855 v 5.706 h 2.1419997 v 0.7199998 h -5.1389995 v -0.7199998 h 2.142 Z "/>
        </symbol>
        <symbol id="gCA56A86F5EB2EF2FF307152208C4367C" overflow="visible">
            <path d="M 0 0m 4.698 0.018 q -0.19799995 -0.11699999 -0.54900026 -0.11699999 q -0.29699993 0 -0.47249985 0.16649999 q -0.17549992 0.1665 -0.17549992 0.5445 q -0.31500006 -0.378 -0.7335 -0.5445 q -0.41849995 -0.16649999 -0.9045 -0.16649999 q -0.31499994 0 -0.5985 0.072 q -0.28349996 0.072 -0.4904999 0.22499998 q -0.20700002 0.153 -0.3285 0.40049997 q -0.121499985 0.2475 -0.121499985 0.59849995 q 0 0.39600003 0.13499999 0.648 q 0.13499999 0.25199997 0.35549998 0.4095 q 0.22049999 0.15750003 0.50399995 0.23849988 q 0.28349996 0.08100009 0.5805 0.13499999 q 0.31500006 0.0630002 0.5985 0.094500065 q 0.28349996 0.0315001 0.49950004 0.089999914 q 0.21599984 0.05850005 0.34199977 0.171 q 0.12600017 0.11250019 0.12600017 0.32850003 q 0 0.2520001 -0.094500065 0.40499997 q -0.094500065 0.15300012 -0.24300003 0.23399997 q -0.14849997 0.08099985 -0.33299994 0.10800028 q -0.18449998 0.02699995 -0.36450005 0.02699995 q -0.48599994 0 -0.80999994 -0.18450022 q -0.32399988 -0.18449998 -0.35099995 -0.6975 h -0.765 q 0.018000007 0.43200016 0.18 0.7290001 q 0.162 0.29700017 0.43199998 0.4814999 q 0.26999998 0.18450022 0.6165 0.26550007 q 0.34650004 0.08099985 0.74249995 0.08099985 q 0.31500006 0 0.62549996 -0.045000076 q 0.3104999 -0.0449996 0.5625 -0.18449974 q 0.25199986 -0.13950014 0.40499997 -0.3915 q 0.15299988 -0.2520001 0.15299988 -0.65700006 v -2.3939998 q 0 -0.27000004 0.031499863 -0.39600003 q 0.03150034 -0.12599999 0.21150017 -0.12599999 q 0.09899998 0 0.2340002 0.045000017 v -0.594 Z m -1.2420001 2.385 q -0.14400005 -0.10800004 -0.37800002 -0.15750003 q -0.23399997 -0.04949999 -0.49049997 -0.08099985 q -0.2565 -0.0315001 -0.5174999 -0.07200003 q -0.26100004 -0.040500164 -0.46800005 -0.13050008 q -0.2069999 -0.089999914 -0.33749998 -0.2565 q -0.13049996 -0.16649997 -0.13049996 -0.45449996 q 0 -0.18900001 0.07650006 -0.31949997 q 0.07649994 -0.13050002 0.19799995 -0.21149999 q 0.121500015 -0.08099997 0.28349996 -0.116999984 q 0.16200006 -0.036000013 0.342 -0.036000013 q 0.37800002 0 0.648 0.10350001 q 0.26999998 0.10350001 0.44099998 0.26099998 q 0.171 0.15750003 0.25199986 0.342 q 0.08100009 0.18449998 0.08100009 0.34649992 v 0.783 Z "/>
        </symbol>
        <symbol id="gED32004C15A72A60DABB0F294095F536" overflow="visible">
            <path d="M 0 0m 0.603 4.653 v -6.4259996 h 0.7649999 v 2.3939998 h 0.018000007 q 0.12600005 -0.20700002 0.31050003 -0.3465 q 0.18449998 -0.13949999 0.39149988 -0.22049999 q 0.20700002 -0.081 0.41850019 -0.11699999 q 0.21149993 -0.036 0.38249993 -0.036 q 0.5309999 0 0.93149996 0.18899998 q 0.40049982 0.18899998 0.6659999 0.5175 q 0.26550007 0.32850003 0.3959999 0.7695 q 0.13050032 0.44099998 0.13050032 0.936 q 0 0.4949999 -0.13500023 0.9359999 q -0.13499975 0.44099998 -0.40049982 0.77849984 q -0.26550007 0.3375001 -0.6660001 0.53550005 q -0.40050006 0.19799995 -0.9405 0.19799995 q -0.48599982 0 -0.8909999 -0.17549992 q -0.40499997 -0.17549992 -0.594 -0.5625 h -0.018000007 v 0.6300001 h -0.7649999 Z m 3.5999997 -2.286 q 0 -0.342 -0.07199955 -0.6659999 q -0.07200003 -0.324 -0.2340002 -0.576 q -0.16199994 -0.25200003 -0.4275 -0.40500003 q -0.26550007 -0.153 -0.6615 -0.153 q -0.3959999 0 -0.67499995 0.14850003 q -0.27899992 0.14849997 -0.45449996 0.3915 q -0.17550004 0.24299991 -0.2565 0.5624999 q -0.08099997 0.3195001 -0.08099997 0.6615 q 0 0.32400012 0.07649994 0.63899994 q 0.07650006 0.31500006 0.24750006 0.5625 q 0.171 0.24749994 0.44099998 0.40050006 q 0.26999998 0.15300012 0.6569998 0.15300012 q 0.3690002 0 0.6435001 -0.14400005 q 0.2744999 -0.14400005 0.45000005 -0.38700008 q 0.17549968 -0.24300003 0.26099992 -0.55349994 q 0.08549976 -0.3104999 0.08549976 -0.6345 Z "/>
        </symbol>
        <symbol id="g22F711DA9E4B972F68FD7E292C99B7BC" overflow="visible">
            <path d="M 0 0m 5.22 4.4909997 h 0.855 q -0.07200003 0.513 -0.30600023 0.9045 q -0.23399973 0.3915 -0.58499956 0.65250015 q -0.3510003 0.26099968 -0.8010001 0.3959999 q -0.45000005 0.13499975 -0.954 0.13499975 q -0.7379999 0 -1.3095 -0.2654996 q -0.57149994 -0.26550007 -0.954 -0.7245002 q -0.38249993 -0.4590001 -0.58049995 -1.0755 q -0.19799998 -0.6164999 -0.19799998 -1.3184998 q 0 -0.70200014 0.18450001 -1.314 q 0.18449998 -0.612 0.5535 -1.062 q 0.36899996 -0.44999996 0.9269998 -0.70649993 q 0.5580001 -0.2565 1.3050001 -0.2565 q 1.2329998 0 1.9439998 0.67499995 q 0.71099997 0.675 0.8369999 1.8900001 h -0.85499954 q -0.027000427 -0.39600015 -0.16200018 -0.73800004 q -0.13500023 -0.342 -0.37349987 -0.58950007 q -0.23850012 -0.24749994 -0.5669999 -0.3869999 q -0.32850027 -0.13950002 -0.7515001 -0.13950002 q -0.576 0 -0.99 0.21600002 q -0.41400003 0.21599996 -0.6795 0.5805 q -0.26549995 0.36449993 -0.3915 0.8549999 q -0.12599993 0.49049997 -0.12599993 1.0395 q 0 0.50399995 0.12599993 0.9720001 q 0.12600005 0.46799994 0.3915 0.8325 q 0.26549995 0.36449957 0.6750001 0.58049965 q 0.40949988 0.21600008 0.98549986 0.21600008 q 0.67499995 0 1.1654999 -0.342 q 0.49049997 -0.342 0.6345 -1.026 Z "/>
        </symbol>
        <symbol id="g61C9F4127305AF901F360BEF13C24E61" overflow="visible">
            <path d="M 0 0m 1.134 2.3219998 q 0 0.4230001 0.11249995 0.7515001 q 0.11250007 0.32850003 0.31050003 0.55349994 q 0.19799995 0.2249999 0.46350002 0.342 q 0.26550007 0.1170001 0.5625 0.1170001 q 0.29699993 0 0.5625 -0.1170001 q 0.26549983 -0.1170001 0.46349978 -0.342 q 0.1980002 -0.2249999 0.31050014 -0.55349994 q 0.112499714 -0.32850003 0.112499714 -0.7515001 q 0 -0.42299986 -0.112499714 -0.7514999 q -0.11249995 -0.3284999 -0.31050014 -0.5489999 q -0.19799995 -0.22050005 -0.46349978 -0.33750004 q -0.26550007 -0.116999984 -0.5625 -0.116999984 q -0.29699993 0 -0.5625 0.116999984 q -0.26550007 0.116999984 -0.46350002 0.33750004 q -0.19799995 0.22049999 -0.31050003 0.5489999 q -0.11249995 0.32850003 -0.11249995 0.7514999 Z m -0.80999994 0 q 0 -0.5129999 0.144 -0.9539999 q 0.144 -0.44099993 0.43199998 -0.76949996 q 0.288 -0.32849997 0.71099997 -0.51299995 q 0.42299998 -0.18449998 0.972 -0.18449998 q 0.55799985 0 0.9764998 0.18449998 q 0.41850019 0.18449998 0.70650005 0.51299995 q 0.2880001 0.32850003 0.43200016 0.76949996 q 0.14400005 0.44099998 0.14400005 0.9539999 q 0 0.513 -0.14400005 0.95850015 q -0.14400005 0.4454999 -0.43200016 0.7739997 q -0.28799987 0.32850027 -0.70650005 0.5175004 q -0.41849995 0.18899965 -0.9764998 0.18899965 q -0.549 0 -0.972 -0.18899965 q -0.42299998 -0.18900013 -0.71099997 -0.5175004 q -0.288 -0.3284998 -0.43199998 -0.7739997 q -0.144 -0.44550014 -0.144 -0.95850015 Z "/>
        </symbol>
        <symbol id="g8E1B81F111D8DA596C7989F59A681042" overflow="visible">
            <path d="M 0 0m 0.576 4.653 v -4.653 h 0.765 v 2.6279998 q 0 0.31500006 0.0855 0.5805001 q 0.0855 0.26549983 0.2565 0.46350002 q 0.171 0.19799995 0.4274999 0.306 q 0.2565 0.10800004 0.6075001 0.10800004 q 0.44099998 0 0.69299984 -0.2520001 q 0.2520001 -0.2520001 0.2520001 -0.684 v -3.1499999 h 0.7650001 v 3.06 q 0 0.37800002 -0.07649994 0.6884999 q -0.076500416 0.31050014 -0.26550007 0.53550005 q -0.18900013 0.2249999 -0.49500012 0.35099983 q -0.306 0.12599993 -0.76499987 0.12599993 q -1.0350001 0 -1.5120001 -0.84599996 h -0.017999887 v 0.73800015 h -0.72 Z "/>
        </symbol>
        <symbol id="g67D2CD4296E07F1D67A4C18AAF486A69" overflow="visible">
            <path d="M 0 0m 1.6379999 4.653 v 1.395 h -0.7649999 v -1.395 h -0.79199994 v -0.67499995 h 0.79199994 v -2.961 q 0 -0.324 0.06300002 -0.52199996 q 0.062999964 -0.19799998 0.19349992 -0.306 q 0.13050008 -0.107999995 0.342 -0.1485 q 0.21150005 -0.0405 0.5085 -0.0405 h 0.5849999 v 0.67499995 h -0.35099983 q -0.18000007 0 -0.29250002 0.013500035 q -0.11250007 0.013499975 -0.17550004 0.058499992 q -0.062999964 0.044999957 -0.0855 0.12599999 q -0.022500038 0.08099997 -0.022500038 0.21600002 v 2.889 h 0.9269999 v 0.67499995 h -0.9269999 Z "/>
        </symbol>
        <symbol id="g94C46ABA2BB9A9DA8335CE1E27CE1572" overflow="visible">
            <path d="M 0 0m 3.807 2.7719998 h -2.6729999 q 0.018000007 0.26999998 0.116999984 0.5085001 q 0.09899998 0.23849988 0.26999998 0.41849995 q 0.171 0.18000007 0.4095 0.28349996 q 0.2385 0.10350013 0.53549993 0.10350013 q 0.2880001 0 0.5265 -0.10350013 q 0.23850012 -0.10349989 0.41400003 -0.27900004 q 0.17549992 -0.17549992 0.27900004 -0.41849995 q 0.10349989 -0.24300003 0.121500015 -0.513 Z m 0.7379997 -1.2959999 h -0.7559998 q -0.09899998 -0.459 -0.40949988 -0.684 q -0.31050014 -0.22499996 -0.79649997 -0.22499996 q -0.37800002 0 -0.65700006 0.12599999 q -0.27899992 0.12599999 -0.459 0.33749998 q -0.17999995 0.21150005 -0.26099992 0.48599994 q -0.08099997 0.2745 -0.07200003 0.5805 h 3.4829998 q 0.018000126 0.4230001 -0.07649994 0.89100003 q -0.094500065 0.46799994 -0.342 0.86399984 q -0.24749994 0.3959999 -0.6569998 0.65250015 q -0.40949988 0.25649977 -1.0304999 0.25649977 q -0.477 0 -0.87749994 -0.17999983 q -0.40050006 -0.17999983 -0.693 -0.5040002 q -0.29249996 -0.32399988 -0.4545 -0.76499987 q -0.16199997 -0.44099998 -0.16199997 -0.9719999 q 0.017999977 -0.531 0.15749997 -0.98099995 q 0.13950002 -0.45 0.4185 -0.774 q 0.27899992 -0.324 0.6884999 -0.50399995 q 0.4095 -0.17999999 0.9675001 -0.17999999 q 0.7919998 0 1.3139999 0.39599997 q 0.52199984 0.39599997 0.6749997 1.1789999 Z "/>
        </symbol>
        <symbol id="gC01CAC907CA7F3CCDAC0F1469FDA2B34" overflow="visible">
            <path d="M 0 0m 1.8269999 2.448 l -1.7459999 -2.448 h 0.9269999 l 1.296 1.9259999 l 1.296 -1.9259999 h 0.98099995 l -1.8 2.511 l 1.602 2.142 h -0.918 l -1.161 -1.629 l -1.1159999 1.629 h -0.98099995 l 1.6199999 -2.205 Z "/>
        </symbol>
        <symbol id="g4080380802756EC36CCB0FF8CCC55A23" overflow="visible">
            <path d="M 0 0m 0.33299997 3.879 h 1.224 q 0 0.2520001 0.04949999 0.50849986 q 0.04949999 0.25649977 0.16649997 0.46799994 q 0.116999984 0.21150017 0.31050003 0.342 q 0.19350004 0.13049984 0.4725001 0.13049984 q 0.4139998 0 0.67949986 -0.25649977 q 0.26550007 -0.25650024 0.26550007 -0.7154999 q 0 -0.2880001 -0.13050008 -0.513 q -0.13050008 -0.22500014 -0.32399988 -0.40499997 q -0.19350004 -0.18000007 -0.4275 -0.32850003 q -0.23399997 -0.14849997 -0.44099998 -0.29250002 q -0.4050001 -0.27900004 -0.7695 -0.549 q -0.36450005 -0.26999998 -0.63449997 -0.58949995 q -0.27000004 -0.31949997 -0.4275 -0.7245 q -0.15749998 -0.40499997 -0.15749998 -0.95399994 h 4.6259995 v 1.0979999 h -2.9789996 q 0.23399997 0.324 0.53999996 0.56700003 q 0.306 0.24299991 0.6299999 0.45449996 q 0.32400012 0.21149993 0.6435001 0.4275 q 0.31949997 0.21599984 0.5714998 0.4814999 q 0.25199986 0.26550007 0.4050002 0.6075001 q 0.15299988 0.342 0.15299988 0.819 q 0 0.45899963 -0.17549992 0.82800007 q -0.17549992 0.36899996 -0.47249985 0.6209998 q -0.29700017 0.25199986 -0.68850017 0.38700008 q -0.3915 0.13499975 -0.8234999 0.13499975 q -0.56700015 0 -1.0035 -0.19350004 q -0.43650007 -0.19350004 -0.7245 -0.53999996 q -0.288 -0.34649992 -0.43199998 -0.80999994 q -0.144 -0.46350002 -0.12600002 -1.0034997 Z "/>
        </symbol>
        <symbol id="gBB8FA3CD457EA7A6C2D27AC4E2C99827" overflow="visible">
            <path d="M 0 0m 2.0519998 3.7529998 v -0.89999986 q 0.2340002 0 0.49049997 -0.013499975 q 0.2565 -0.013499975 0.4725001 -0.09899998 q 0.21600008 -0.0855 0.35549998 -0.27450013 q 0.1394999 -0.18899989 0.1394999 -0.5489999 q 0 -0.459 -0.29699993 -0.72449994 q -0.29699993 -0.2655 -0.72899985 -0.2655 q -0.27900004 0 -0.48150015 0.09899992 q -0.20249987 0.0990001 -0.33749986 0.26550007 q -0.13499999 0.16649997 -0.20700002 0.3959999 q -0.07200003 0.22950006 -0.08099997 0.48150003 h -1.2149999 q -0.009000003 -0.549 0.1575 -0.972 q 0.16649997 -0.42299992 0.47249994 -0.71549994 q 0.306 -0.29249996 0.74249995 -0.44549996 q 0.43650007 -0.153 0.9675 -0.153 q 0.4590001 0 0.88199997 0.13499999 q 0.4230001 0.13499999 0.7470002 0.39599997 q 0.32399988 0.26099998 0.5174999 0.64799994 q 0.19350004 0.38699996 0.19350004 0.88199997 q 0 0.5400001 -0.2970004 0.9269999 q -0.29699993 0.38700008 -0.81899977 0.50399995 v 0.018000126 q 0.44099998 0.12599993 0.6615 0.477 q 0.22049999 0.35099983 0.22049999 0.80999994 q 0 0.42299986 -0.18900013 0.74699974 q -0.18899965 0.32400036 -0.49049973 0.54900026 q -0.30150008 0.2249999 -0.6795001 0.3375001 q -0.37800002 0.112499714 -0.75600004 0.112499714 q -0.48599982 0 -0.88199985 -0.15749979 q -0.39600003 -0.15750027 -0.6795 -0.4454999 q -0.28349996 -0.2880001 -0.44099998 -0.6885004 q -0.1575 -0.40049982 -0.17549998 -0.8864999 h 1.2149999 q -0.009000063 0.48600006 0.2385 0.80550003 q 0.24749982 0.31949997 0.7334999 0.31949997 q 0.35100007 0 0.62100005 -0.21600008 q 0.26999998 -0.2159996 0.26999998 -0.6209998 q 0 -0.26999998 -0.13050008 -0.43200016 q -0.13049984 -0.1619997 -0.33299994 -0.2474997 q -0.20249987 -0.0855 -0.43650007 -0.10350013 q -0.23399997 -0.017999887 -0.44099998 0 Z "/>
        </symbol>
        <symbol id="g5284E6BE1CA0EF36B792B0FE6B651BC8" overflow="visible">
            <path d="M 0 0m 4.4189997 4.5449996 h 0.80999994 q -0.017999649 0.53100014 -0.20249987 0.9135003 q -0.18449974 0.3824997 -0.5039997 0.6345 q -0.31950045 0.25199986 -0.7425003 0.36899996 q -0.42299986 0.116999626 -0.91799974 0.116999626 q -0.44099998 0 -0.85950017 -0.112499714 q -0.41849995 -0.11250019 -0.74699986 -0.342 q -0.32849997 -0.22949982 -0.5265 -0.58500004 q -0.19800001 -0.35549974 -0.19800001 -0.8414998 q 0 -0.44099998 0.17550004 -0.73350024 q 0.17549998 -0.29249978 0.468 -0.47699976 q 0.2924999 -0.18449998 0.6615 -0.29700017 q 0.36899996 -0.11249995 0.7514999 -0.19799995 q 0.38249993 -0.0855 0.7514999 -0.16649985 q 0.3690002 -0.08100009 0.6615 -0.21150017 q 0.29250002 -0.13049984 0.46799994 -0.33749986 q 0.17549992 -0.20700002 0.17549992 -0.5400001 q 0 -0.35099995 -0.14399958 -0.576 q -0.14400005 -0.2249999 -0.37800026 -0.35549992 q -0.23399997 -0.13050002 -0.5265 -0.18449998 q -0.29249978 -0.05400002 -0.5804999 -0.05400002 q -0.3599999 0 -0.7019999 0.089999974 q -0.342 0.09000003 -0.5985 0.27900004 q -0.2565 0.18900001 -0.41400003 0.4814999 q -0.15749991 0.29250002 -0.15749991 0.6975001 h -0.81000006 q 0 -0.58500004 0.21150002 -1.0125 q 0.21149999 -0.4275 0.576 -0.702 q 0.36449993 -0.27449998 0.84599996 -0.40949997 q 0.48150003 -0.13499999 1.0215 -0.13499999 q 0.44099998 0 0.8864999 0.10349999 q 0.4454999 0.10349999 0.80550003 0.333 q 0.36000013 0.22949997 0.58949995 0.594 q 0.22949982 0.3645 0.22949982 0.8775 q 0 0.477 -0.17549992 0.79200006 q -0.17549992 0.31499982 -0.46799994 0.52199984 q -0.29250002 0.20700002 -0.6615 0.32850003 q -0.36899996 0.121500015 -0.7514999 0.21149993 q -0.38249993 0.09000015 -0.7514999 0.16650009 q -0.3690002 0.07649994 -0.6615 0.19350004 q -0.29250014 0.116999865 -0.46800005 0.30150008 q -0.17550004 0.18449974 -0.17550004 0.48149967 q 0 0.31500006 0.121500015 0.5265002 q 0.121500015 0.21149969 0.324 0.33749962 q 0.20249999 0.1260004 0.4634999 0.1800003 q 0.26100016 0.0539999 0.53100014 0.0539999 q 0.6659999 0 1.0934999 -0.31050014 q 0.42749977 -0.31049967 0.4994998 -1.0035 Z "/>
        </symbol>
        <symbol id="gD0A61EF031432F1821017400524F24E5" overflow="visible">
            <path d="M 0 0m 1.3859999 5.49 v 0.9359999 h -0.7649999 v -0.9359999 h 0.7649999 Z m -0.7649999 -0.8369999 v -4.653 h 0.7649999 v 4.653 h -0.7649999 Z "/>
        </symbol>
        <symbol id="g8E4EB483AC6E6351ACDB17B6B003FAEE" overflow="visible">
            <path d="M 0 0m 4.5899997 0.39599997 v 4.257 h -0.7199998 v -0.6660001 h -0.009000063 q -0.20700002 0.38699985 -0.576 0.5804999 q -0.36899996 0.19350004 -0.80999994 0.19350004 q -0.6029999 0 -1.017 -0.22949982 q -0.41400003 -0.22949982 -0.666 -0.58500004 q -0.25199997 -0.35549998 -0.35999995 -0.79200006 q -0.10799998 -0.43649983 -0.10799998 -0.85049987 q 0 -0.477 0.13049999 -0.9045 q 0.13049999 -0.42749995 0.39149997 -0.7469999 q 0.26100004 -0.3195 0.648 -0.5085 q 0.38699996 -0.189 0.9089999 -0.189 q 0.45000005 0 0.85049987 0.2025 q 0.40050006 0.20249999 0.5985 0.6344999 h 0.018000126 v -0.30599996 q 0 -0.38699996 -0.07649994 -0.71099997 q -0.07650018 -0.32399997 -0.24750018 -0.55349994 q -0.171 -0.22949994 -0.43199992 -0.36 q -0.26099992 -0.13049996 -0.63899994 -0.13049996 q -0.18899989 0 -0.3959999 0.040500045 q -0.20700002 0.040499926 -0.38250005 0.13049996 q -0.17550004 0.09000003 -0.29700005 0.23399997 q -0.121499896 0.144 -0.13049996 0.351 h -0.765 q 0.018000007 -0.37800002 0.19800001 -0.639 q 0.18 -0.26100004 0.45450002 -0.42299998 q 0.2745 -0.16199994 0.612 -0.23399997 q 0.33749998 -0.07200003 0.66149986 -0.07200003 q 1.1159999 0 1.638 0.56700003 q 0.52199984 0.5669999 0.52199984 1.7099998 Z m -2.1419997 0.22500002 q -0.37800002 0 -0.63 0.15749997 q -0.25199997 0.15750003 -0.40499997 0.41400003 q -0.153 0.2564999 -0.21600008 0.57149994 q -0.062999964 0.31500006 -0.062999964 0.6299999 q 0 0.33300018 0.07650006 0.63899994 q 0.07649994 0.306 0.24299991 0.5400002 q 0.16649997 0.23399997 0.4275 0.37349987 q 0.26100004 0.13950014 0.63 0.13950014 q 0.3599999 0 0.612 -0.14400005 q 0.25199986 -0.14400005 0.40949988 -0.38250017 q 0.15750003 -0.23849988 0.22950006 -0.5354998 q 0.07200003 -0.29699993 0.07200003 -0.6029999 q 0 -0.32400012 -0.07649994 -0.6480001 q -0.07650018 -0.324 -0.23850012 -0.5804999 q -0.16199994 -0.2565 -0.4275 -0.41400003 q -0.26549983 -0.15749997 -0.64349985 -0.15749997 Z "/>
        </symbol>
        <symbol id="g1180D6D71B188E163EF653E1338B925" overflow="visible">
            <path d="M 0 0m 4.428 0 v 4.653 h -0.7650001 v -2.628 q 0 -0.31499994 -0.0855 -0.5804999 q -0.0855 -0.26550007 -0.2565 -0.46350002 q -0.171 -0.19799995 -0.4275 -0.306 q -0.2565 -0.10799998 -0.60749984 -0.10799998 q -0.4410001 0 -0.6930001 0.25199997 q -0.25199997 0.25200003 -0.25199997 0.68399996 v 3.15 h -0.765 v -3.06 q 0 -0.37800002 0.0765 -0.6885 q 0.0765 -0.31049997 0.2655 -0.53549993 q 0.18900001 -0.225 0.495 -0.34649998 q 0.306 -0.12149999 0.765 -0.12149999 q 0.513 0 0.8909998 0.20249999 q 0.37800002 0.2025 0.62100005 0.63449997 h 0.018000126 v -0.738 h 0.72 Z "/>
        </symbol>
        <symbol id="g2EEC05104648C1A05C904F1724267301" overflow="visible">
            <path d="M 0 0m 0.54899997 4.653 v -4.653 h 0.7649999 v 2.07 q 0 0.45000005 0.09000003 0.79649997 q 0.09000003 0.34649992 0.288 0.58949995 q 0.19799995 0.24300003 0.5220001 0.36899996 q 0.32399988 0.12599993 0.783 0.12599993 v 0.80999994 q -0.62100005 0.018000126 -1.026 -0.25199986 q -0.40499997 -0.26999998 -0.684 -0.8369999 h -0.018000007 v 0.98099995 h -0.71999997 Z "/>
        </symbol>
    </defs>
</svg>
